<svg xmlns="http://www.w3.org/2000/svg" width="27" height="27" fill="none"><path fill="#fff" d="M20.797 3.408H6.047a2.783 2.783 0 0 0-2.795 2.794v14.75a2.783 2.783 0 0 0 2.795 2.795h7.298v-7.142H11.48q-.465 0-.465-.466V13.81q0-.465.465-.465h1.864V11.17c0-2.64 1.552-4.037 3.881-4.037h1.863q.465 0 .466.466v2.018q0 .465-.466.466h-1.242c-1.242 0-1.553.621-1.553 1.553v2.018h2.795q.465 0 .466.466l-.31 2.329c0 .155-.156.466-.466.466h-2.174v7.142h4.347a2.783 2.783 0 0 0 2.795-2.795V6.513c-.155-1.863-1.397-3.105-2.95-3.105"/></svg>