<svg xmlns="http://www.w3.org/2000/svg" width="27" height="27" fill="none"><path fill="#fff" d="M13.5 4.96h4.192c2.795.156 4.192 1.398 4.348 4.348v8.384c-.155 2.795-1.398 4.192-4.348 4.348H9.308c-2.795-.155-4.192-1.553-4.347-4.348V9.308c.155-2.795 1.397-4.192 4.347-4.347zm0-1.862H9.153c-3.726.155-5.9 2.329-6.055 6.055v8.695c.155 3.726 2.329 5.9 6.055 6.055h8.695c3.726-.155 5.9-2.329 6.055-6.055V9.153c-.155-3.726-2.329-5.9-6.055-6.055zm0 4.968c-2.95 0-5.434 2.329-5.434 5.434 0 2.95 2.329 5.435 5.434 5.435s5.435-2.33 5.435-5.435c0-2.95-2.485-5.434-5.435-5.434m0 8.85c-1.863 0-3.415-1.553-3.415-3.416s1.552-3.415 3.415-3.415 3.416 1.552 3.416 3.415-1.553 3.416-3.416 3.416M19.09 6.67c-.621 0-1.242.62-1.242 1.242 0 .62.62 1.242 1.242 1.242.62 0 1.242-.621 1.242-1.242s-.621-1.242-1.242-1.242"/></svg>