<svg width="330" height="92" viewBox="0 0 330 92" fill="none" xmlns="http://www.w3.org/2000/svg">
  <g opacity="0.9" clip-path="url(#clip0_1_454)">
    <g clip-path="url(#clip1_1_454)">
      <path
        d="M92.0651 35.2244C86.5179 31.4271 78.9646 31.554 78.1452 31.554C77.3257 31.554 69.7724 31.4271 64.2253 35.2244C58.6781 39.0218 57.854 44.8022 57.854 48.0917C57.854 51.3812 58.6781 57.1616 64.2253 60.9589C69.7724 64.7563 77.3257 64.6293 78.1452 64.6293C78.9646 64.6293 86.5179 64.7563 92.0651 60.9589C97.6122 57.1616 98.4363 51.3812 98.4363 48.0917C98.4363 44.8022 97.6122 39.0218 92.0651 35.2244ZM88.5054 57.0577C84.3756 59.7032 78.7547 59.6154 78.1429 59.6154C77.5311 59.6154 71.9101 59.7032 67.7803 57.0577C63.6505 54.4122 63.0365 50.3863 63.0365 48.094C63.0365 45.8017 63.6505 41.7758 67.7803 39.1303C71.9101 36.4848 77.5311 36.5726 78.1429 36.5726C78.7547 36.5726 84.3756 36.4848 88.5054 39.1303C92.6352 41.7758 93.2493 45.8017 93.2493 48.094C93.2493 50.3863 92.6352 54.4122 88.5054 57.0577Z"
        fill="white" />
      <path
        d="M173.558 35.2244C168.01 31.4271 160.458 31.554 159.638 31.554C158.818 31.554 151.265 31.4271 145.718 35.2244C140.17 39.0218 139.347 44.8022 139.347 48.0917C139.347 51.3812 140.17 57.1616 145.718 60.9589C151.265 64.7563 158.818 64.6293 159.638 64.6293C160.458 64.6293 168.01 64.7563 173.558 60.9589C179.105 57.1616 179.929 51.3812 179.929 48.0917C179.929 44.8022 179.105 39.0218 173.558 35.2244ZM169.998 57.0577C165.868 59.7032 160.247 59.6154 159.636 59.6154C159.023 59.6154 153.402 59.7032 149.273 57.0577C145.143 54.4122 144.529 50.3863 144.529 48.094C144.529 45.8017 145.143 41.7758 149.273 39.1303C153.402 36.4848 159.023 36.5726 159.636 36.5726C160.247 36.5726 165.868 36.4848 169.998 39.1303C174.128 41.7758 174.742 45.8017 174.742 48.094C174.742 50.3863 174.128 54.4122 169.998 57.0577Z"
        fill="white" />
      <path
        d="M20.1299 64.3488H40.5665C44.8648 64.3465 49.1401 63.5201 52.1918 59.9074C54.8027 56.814 55.0866 50.542 50.7075 47.5064C54.7195 45.1749 56.0931 41.0428 54.8003 37.4116C53.2306 33.0025 48.2674 31.8482 43.706 31.8459H23.3779C24.3982 42.968 19.1165 53.266 20.1299 64.3488ZM28.8235 36.8345C34.0359 36.8506 39.2553 36.8045 44.4701 36.8045C47.5172 36.8045 50.6797 37.7279 50.2227 40.9874C49.6894 44.7985 45.1788 45.1749 42.0185 45.1749H27.9693C28.678 42.4578 28.7519 39.5746 28.8235 36.8368V36.8345ZM26.3396 50.1104H42.2147C45.5228 50.1104 49.3317 50.8329 48.9439 54.6672C48.526 58.7878 43.4982 59.2379 40.4972 59.2333C35.3725 59.2009 30.2432 59.2471 25.1184 59.2172C25.2985 56.23 25.377 53.0398 26.3419 50.1104H26.3396Z"
        fill="white" />
      <path
        d="M121.774 31.4351C110.758 31.4351 107.828 38.9606 107.828 38.9606V31.846H102.641V64.3488H107.828V50.8744C107.828 49.1778 107.992 36.9291 120.396 36.3682C124.569 36.1789 129.957 38.3788 129.957 48.349V64.3512H135.144V47.8942C135.144 40.1333 133.205 31.4374 121.774 31.4374V31.4351Z"
        fill="white" />
      <path d="M204.887 31.7125H203.497V47.7542H204.887V31.7125Z" fill="white" />
      <path d="M200.717 47.7548H199.327V64.2421H200.717V47.7548Z" fill="white" />
      <path fill-rule="evenodd" clip-rule="evenodd"
        d="M235.061 28.1586H232.789V33.7489C232.771 33.7214 232.753 33.6924 232.733 33.6623C232.569 33.4173 232.32 33.0909 231.978 32.7643C231.294 32.1107 230.233 31.4551 228.736 31.4551C226.754 31.4551 225.32 32.2311 224.385 33.447C223.452 34.6594 223.021 36.3004 223.021 38.0245C223.021 39.7485 223.452 41.3896 224.385 42.6019C225.32 43.8178 226.754 44.5938 228.736 44.5938C230.233 44.5938 231.294 43.9382 231.978 43.2846C232.32 42.9581 232.569 42.6316 232.733 42.3867C232.753 42.3565 232.771 42.3276 232.789 42.3001V44.2275H235.061V28.1586ZM225.416 38.0245C225.416 36.2688 225.84 35.0428 226.506 34.2574C227.172 33.4737 228.089 33.1169 229.103 33.1169C230.111 33.1169 231.029 33.5315 231.697 34.3476C232.366 35.165 232.789 36.3925 232.789 38.0245C232.789 39.6564 232.366 40.8839 231.697 41.7014C231.029 42.5174 230.111 42.9321 229.103 42.9321C228.089 42.9321 227.172 42.5752 226.506 41.7916C225.84 41.0061 225.416 39.7802 225.416 38.0245Z"
        fill="white" />
      <path d="M239.697 28.1586H237.425V30.675H239.697V28.1586Z" fill="white" />
      <path d="M258.505 28.1586H256.232V30.675H258.505V28.1586Z" fill="white" />
      <path
        d="M265.106 28.1586H262.834V31.8214H260.393V33.6053H262.834V41.0768C262.834 42.2395 262.986 43.0931 263.419 43.6551C263.859 44.2243 264.568 44.4717 265.618 44.4717C266.236 44.4717 266.76 44.4101 267.13 44.3482C267.316 44.3174 267.463 44.2865 267.564 44.2631C267.614 44.2515 267.653 44.2418 267.68 44.2349L267.71 44.2268L267.718 44.2246L267.721 44.2238L267.793 44.2033V42.5798L267.684 42.5907L267.674 42.5917L267.642 42.5949C267.614 42.5975 267.575 42.6013 267.525 42.6059C267.426 42.615 267.29 42.6272 267.137 42.6393C266.832 42.6638 266.469 42.6879 266.229 42.6879C265.814 42.6879 265.547 42.5988 265.377 42.3755C265.199 42.1436 265.106 41.7455 265.106 41.0768V33.6053H267.793V31.8214H265.106V28.1586Z"
        fill="white" />
      <path d="M285.37 28.1586H283.097V44.2275H285.37V28.1586Z" fill="white" />
      <path fill-rule="evenodd" clip-rule="evenodd"
        d="M247.544 31.4547C245.561 31.4547 244.129 32.2305 243.193 33.415C242.261 34.5965 241.83 36.1764 241.83 37.7798C241.83 39.3832 242.261 40.9631 243.193 42.1445C244.129 43.3291 245.561 44.1049 247.544 44.1049C249.04 44.1049 250.102 43.4493 250.786 42.7957C251.128 42.4692 251.377 42.1428 251.54 41.8978C251.561 41.8676 251.579 41.8387 251.597 41.8112V42.9078C251.597 44.3513 251.147 45.2664 250.473 45.8233C249.795 46.3831 248.875 46.5944 247.91 46.5944C247.009 46.5944 246.237 46.384 245.663 45.9719C245.091 45.5611 244.707 44.9448 244.589 44.1149L244.577 44.0304H242.306L242.318 44.1392C242.443 45.313 243.005 46.3448 243.958 47.0818C244.909 47.8182 246.245 48.2562 247.91 48.2562C249.882 48.2562 251.374 47.7013 252.374 46.7487C253.374 45.7956 253.869 44.4552 253.869 42.9078V31.8209H251.597V33.7484C251.579 33.7209 251.561 33.6919 251.54 33.6618C251.377 33.4168 251.128 33.0904 250.786 32.7638C250.102 32.1103 249.04 31.4547 247.544 31.4547ZM244.223 37.7798C244.223 36.1478 244.647 34.9832 245.314 34.2278C245.979 33.4735 246.896 33.1164 247.91 33.1164C248.919 33.1164 249.839 33.5313 250.506 34.3179C251.174 35.1054 251.597 36.2716 251.597 37.7798C251.597 39.288 251.174 40.4542 250.506 41.2417C249.839 42.0282 248.919 42.4432 247.91 42.4432C246.896 42.4432 245.979 42.0861 245.314 41.3319C244.647 40.5765 244.223 39.4118 244.223 37.7798Z"
        fill="white" />
      <path fill-rule="evenodd" clip-rule="evenodd"
        d="M281.35 44.208L281.272 44.2248L281.27 44.2252L281.265 44.2263L281.245 44.2303C281.229 44.2337 281.204 44.2386 281.173 44.2444C281.111 44.256 281.022 44.2716 280.917 44.287C280.708 44.3179 280.427 44.3491 280.152 44.3491C279.541 44.3491 278.965 44.2893 278.542 44.0126C278.108 43.7294 277.856 43.2346 277.856 42.4194V42.4048C277.837 42.4323 277.817 42.4613 277.796 42.4915C277.631 42.7252 277.378 43.0364 277.028 43.3475C276.327 43.9706 275.236 44.5933 273.681 44.5933C272.258 44.5933 271.164 44.1912 270.425 43.5145C269.685 42.8373 269.309 41.894 269.309 40.8322C269.309 39.7719 269.653 38.7943 270.537 38.0847C271.416 37.3782 272.816 36.9489 274.902 36.9489C276.301 36.9489 277.032 36.7046 277.416 36.3633C277.795 36.0268 277.856 35.5769 277.856 35.0937C277.856 34.3901 277.595 33.9044 277.108 33.589C276.612 33.2686 275.872 33.1164 274.902 33.1164C273.875 33.1164 273.108 33.3281 272.597 33.7359C272.092 34.1404 271.826 34.7499 271.826 35.5821V35.6804H269.554V35.5821C269.554 34.1485 270.116 33.1101 271.076 32.4341C272.029 31.7617 273.365 31.4547 274.902 31.4547C276.559 31.4547 277.867 31.7611 278.761 32.436C279.662 33.1149 280.129 34.1547 280.129 35.5821V41.1985C280.129 41.444 280.129 41.6601 280.147 41.847C280.166 42.034 280.201 42.1815 280.267 42.2933C280.39 42.5012 280.642 42.6257 281.241 42.5658L281.35 42.555V44.208ZM274.658 38.3665C276.672 38.3665 277.524 37.8793 277.856 37.5801V38.1461C277.856 39.9587 277.343 41.1529 276.632 41.8935C275.92 42.6346 275.001 42.9316 274.169 42.9316C273.396 42.9316 272.781 42.694 272.36 42.2877C271.94 41.8816 271.704 41.2981 271.704 40.588C271.704 39.71 272.11 39.1609 272.678 38.826C273.252 38.4874 273.995 38.3665 274.658 38.3665Z"
        fill="white" />
      <path d="M239.697 31.8209H237.425V44.227H239.697V31.8209Z" fill="white" />
      <path d="M258.505 31.8209H256.232V44.227H258.505V31.8209Z" fill="white" />
      <path
        d="M275.549 47.8193H273.277V51.4822H270.835V53.266H273.277V60.7376C273.277 61.9003 273.429 62.7538 273.862 63.3159C274.302 63.885 275.01 64.1325 276.061 64.1325C276.679 64.1325 277.203 64.0708 277.573 64.009C277.759 63.9781 277.906 63.9473 278.007 63.924C278.057 63.9123 278.096 63.9025 278.123 63.8957L278.153 63.8876L278.161 63.8853L278.164 63.8846L278.236 63.8641V62.2406L278.125 62.2517L278.117 62.2525L278.084 62.2556L277.967 62.2666C277.869 62.2758 277.732 62.288 277.58 62.3001C277.274 62.3245 276.912 62.3486 276.672 62.3486C276.257 62.3486 275.99 62.2596 275.82 62.0362C275.642 61.8044 275.549 61.4063 275.549 60.7376V53.266H278.236V51.4822H275.549V47.8193Z"
        fill="white" />
      <path d="M282.511 47.8193H280.238V50.3358H282.511V47.8193Z" fill="white" />
      <path
        d="M229.103 51.1159C227.062 51.1159 225.538 51.8591 224.526 53.0585C223.515 54.2557 223.021 55.8979 223.021 57.6852C223.021 59.4726 223.515 61.1148 224.526 62.312C225.538 63.5114 227.062 64.2546 229.103 64.2546C230.894 64.2546 232.262 63.6982 233.199 62.824C234.135 61.9504 234.632 60.7656 234.695 59.5216L234.7 59.4184H232.312L232.301 59.5045C232.182 60.4665 231.852 61.2373 231.322 61.767C230.794 62.2951 230.057 62.5928 229.103 62.5928C228.089 62.5928 227.172 62.236 226.506 61.4524C225.84 60.6668 225.416 59.441 225.416 57.6852C225.416 55.9295 225.84 54.7036 226.506 53.9181C227.172 53.1345 228.089 52.7777 229.103 52.7777C230.057 52.7777 230.794 53.0754 231.322 53.6035C231.852 54.1332 232.182 54.9039 232.301 55.866L232.312 55.9521H234.7L234.695 55.8489C234.632 54.6049 234.135 53.4201 233.199 52.5464C232.262 51.6723 230.894 51.1159 229.103 51.1159Z"
        fill="white" />
      <path fill-rule="evenodd" clip-rule="evenodd"
        d="M250.935 51.1159C248.955 51.1159 247.461 51.8598 246.464 53.0591C245.47 54.2561 244.977 55.8979 244.977 57.6852C244.977 59.4726 245.47 61.1148 246.48 62.312C247.493 63.5114 249.017 64.2546 251.057 64.2546C252.603 64.2546 253.846 63.8217 254.766 63.0885C255.686 62.3554 256.277 61.3272 256.526 60.1474L256.551 60.0288H254.275L254.258 60.1065C254.08 60.9392 253.665 61.5588 253.106 61.971C252.546 62.3839 251.834 62.5928 251.057 62.5928C250.091 62.5928 249.209 62.2714 248.55 61.5649C247.905 60.8728 247.463 59.8009 247.377 58.2719H256.65V57.1969C256.65 55.7156 256.25 54.1965 255.332 53.0454C254.411 51.891 252.978 51.1159 250.935 51.1159ZM248.595 53.7002C247.996 54.3162 247.574 55.2656 247.431 56.6102H254.255C254.237 55.276 253.856 54.3268 253.269 53.7085C252.668 53.0753 251.842 52.7777 250.935 52.7777C250.017 52.7777 249.208 53.0692 248.595 53.7002Z"
        fill="white" />
      <path fill-rule="evenodd" clip-rule="evenodd"
        d="M270.435 63.8692L270.358 63.886L270.356 63.8864L270.351 63.8875L270.332 63.8915C270.324 63.8931 270.315 63.8949 270.305 63.8969C270.291 63.8995 270.277 63.9024 270.259 63.9057C270.197 63.9173 270.109 63.9328 270.003 63.9483C269.793 63.9791 269.514 64.0104 269.239 64.0104C268.626 64.0104 268.051 63.9505 267.627 63.6739C267.195 63.3907 266.942 62.8958 266.942 62.0807V62.066C266.923 62.0935 266.904 62.1225 266.882 62.1527C266.717 62.3865 266.463 62.6976 266.113 63.0088C265.413 63.6318 264.322 64.2546 262.767 64.2546C261.345 64.2546 260.251 63.8524 259.511 63.1758C258.771 62.4986 258.396 61.5552 258.396 60.4934C258.396 59.4331 258.74 58.4556 259.622 57.746C260.502 57.0395 261.901 56.6102 263.988 56.6102C265.386 56.6102 266.118 56.3659 266.502 56.0246C266.88 55.6881 266.942 55.2381 266.942 54.755C266.942 54.0513 266.681 53.5657 266.193 53.2503C265.699 52.9298 264.958 52.7777 263.988 52.7777C262.962 52.7777 262.194 52.9894 261.684 53.3971C261.179 53.8016 260.912 54.4112 260.912 55.2433V55.3416H258.639V55.2433C258.639 53.8098 259.203 52.7714 260.162 52.0953C261.116 51.4229 262.452 51.1159 263.988 51.1159C265.646 51.1159 266.953 51.4223 267.848 52.0972C268.748 52.7762 269.214 53.816 269.214 55.2433V60.8597C269.214 61.1053 269.215 61.3214 269.233 61.5082C269.251 61.6953 269.288 61.8428 269.354 61.9545C269.475 62.1624 269.727 62.287 270.327 62.227L270.435 62.2162V63.8692ZM263.744 58.0277C265.758 58.0277 266.611 57.5405 266.942 57.2414V57.8073C266.942 59.62 266.429 60.8142 265.718 61.5547C265.007 62.2958 264.087 62.5928 263.256 62.5928C262.482 62.5928 261.868 62.3552 261.447 61.9489C261.026 61.5428 260.79 60.9594 260.79 60.2492C260.79 59.3713 261.196 58.8221 261.764 58.4872C262.339 58.1487 263.082 58.0277 263.744 58.0277Z"
        fill="white" />
      <path fill-rule="evenodd" clip-rule="evenodd"
        d="M303.282 51.1159C301.301 51.1159 299.807 51.8598 298.811 53.0591C297.816 54.2561 297.322 55.8979 297.322 57.6852C297.322 59.4726 297.816 61.1148 298.826 62.312C299.839 63.5114 301.363 64.2546 303.403 64.2546C304.949 64.2546 306.192 63.8217 307.112 63.0885C308.033 62.3554 308.623 61.3272 308.872 60.1474L308.897 60.0288H306.621L306.604 60.1065C306.425 60.9392 306.01 61.5588 305.451 61.971C304.891 62.3839 304.18 62.5928 303.403 62.5928C302.437 62.5928 301.555 62.2714 300.897 61.5649C300.251 60.8728 299.809 59.8009 299.722 58.2719H308.996V57.1969C308.996 55.7156 308.595 54.1965 307.678 53.0454C306.758 51.891 305.324 51.1159 303.282 51.1159ZM306.601 56.6102H299.776C299.92 55.2656 300.342 54.3162 300.941 53.7002C301.554 53.0692 302.363 52.7777 303.282 52.7777C304.188 52.7777 305.015 53.0753 305.615 53.7085C306.202 54.3268 306.584 55.276 306.601 56.6102Z"
        fill="white" />
      <path
        d="M243.252 51.3606C241.7 51.3606 240.631 52.1504 239.941 52.9739C239.525 53.4704 239.245 53.9814 239.077 54.345V51.4827H236.805V63.8888H239.077V58.6625C239.077 56.8448 239.501 55.5585 240.213 54.7278C240.923 53.8994 241.931 53.5107 243.13 53.5107H243.96V51.3606H243.252Z"
        fill="white" />
      <path d="M282.511 51.4821H280.238V63.8882H282.511V51.4821Z" fill="white" />
      <path
        d="M286.639 51.4821H284.227L289.314 63.8882H291.643L296.73 51.4821H294.318L290.479 61.6795L286.639 51.4821Z"
        fill="white" />
      <path
        d="M291.833 36.7262H290.122L292.901 40.3316L289.979 44.2276H291.688L293.755 41.3046L295.822 44.2276H297.531L294.609 40.3316L297.388 36.7262H295.678L293.755 39.3605L291.833 36.7262Z"
        fill="white" />
    </g>
  </g>
  <defs>
    <clipPath id="clip0_1_454">
      <rect width="330" height="92" fill="white" />
    </clipPath>
    <clipPath id="clip1_1_454">
      <rect width="290" height="37.3559" fill="white" transform="translate(20 27.4178)" />
    </clipPath>
  </defs>
</svg>