<svg xmlns="http://www.w3.org/2000/svg" width="136" height="22" fill="none"><path fill="#fff" d="M5.518 18.857.722 2.095h3.871l2.775 11.647h.14l3.06-11.647h3.315l3.053 11.671h.147l2.775-11.67h3.87l-4.795 16.761h-3.454L12.287 7.898h-.131l-3.184 10.96zM29.17 2.095v16.762h-3.544V2.095zM35.114 2.095l4.05 12.735h.156l4.06-12.735h3.928L41.53 18.857h-4.567L31.177 2.095zM63.784 10.476q0 2.742-1.04 4.665-1.031 1.924-2.815 2.939-1.776 1.006-3.994 1.006-2.235 0-4.01-1.015-1.776-1.015-2.808-2.938-1.03-1.923-1.031-4.657 0-2.742 1.031-4.665 1.032-1.923 2.808-2.93 1.776-1.015 4.01-1.015 2.218 0 3.994 1.015 1.784 1.007 2.816 2.93 1.04 1.923 1.039 4.665m-3.593 0q0-1.776-.532-2.995-.525-1.22-1.481-1.85-.958-.63-2.243-.63t-2.243.63q-.957.63-1.49 1.85-.523 1.22-.523 2.995t.524 2.996q.531 1.22 1.49 1.85.957.63 2.242.63t2.242-.63q.959-.63 1.482-1.85.532-1.22.532-2.996M82.508 18.857V2.095h6.139q1.784 0 2.954.59 1.17.58 1.752 1.58.58.99.58 2.234 0 1.047-.384 1.767-.385.713-1.031 1.146a4.5 4.5 0 0 1-1.408.622v.164q.835.04 1.629.54.801.491 1.326 1.4.523.908.523 2.21 0 1.284-.605 2.307-.597 1.015-1.85 1.613-1.252.59-3.2.59zm2.53-2.169h3.65q1.815 0 2.602-.704.786-.703.786-1.76a2.76 2.76 0 0 0-.401-1.456 2.87 2.87 0 0 0-1.146-1.056q-.737-.393-1.752-.393h-3.74zm0-7.341h3.388q.85 0 1.53-.328a2.7 2.7 0 0 0 1.088-.916q.41-.598.41-1.408 0-1.04-.729-1.743-.728-.704-2.234-.704h-3.454zM101.05 19.135q-1.195 0-2.16-.442a3.64 3.64 0 0 1-1.531-1.3q-.557-.852-.557-2.088 0-1.065.41-1.751a3 3 0 0 1 1.105-1.089q.695-.401 1.555-.606.858-.204 1.751-.31l1.833-.213q.705-.09 1.023-.287.32-.196.32-.638v-.058q0-1.071-.606-1.661-.597-.59-1.784-.59-1.236 0-1.948.549-.705.54-.974 1.203l-2.3-.524q.41-1.146 1.195-1.85a4.85 4.85 0 0 1 1.825-1.03 7.1 7.1 0 0 1 2.169-.328q.753 0 1.596.18a4.7 4.7 0 0 1 1.588.638q.745.466 1.219 1.335.475.858.475 2.234v8.348h-2.39v-1.719h-.098a3.5 3.5 0 0 1-.712.933q-.475.459-1.22.762-.744.303-1.784.302m.532-1.964q1.015 0 1.735-.4.729-.401 1.105-1.049.385-.654.385-1.4v-1.62q-.131.132-.508.246a8 8 0 0 1-.843.188q-.474.075-.924.14-.452.056-.753.098-.712.09-1.302.302a2.24 2.24 0 0 0-.933.614q-.344.393-.344 1.048 0 .909.671 1.375.672.458 1.711.458M112.961 11.393v7.464h-2.448V6.286h2.349v2.046h.156a3.6 3.6 0 0 1 1.359-1.604q.933-.606 2.349-.606 1.284 0 2.25.54.966.532 1.498 1.588t.532 2.61v7.997h-2.447v-7.701q0-1.368-.712-2.137-.712-.777-1.956-.777-.852 0-1.514.368a2.65 2.65 0 0 0-1.04 1.08q-.376.704-.376 1.703M126.539 14.593l-.017-2.987h.426l5.009-5.32h2.93l-5.713 6.056h-.384zm-2.251 4.264V2.095h2.447v16.762zm7.939 0-4.501-5.975 1.686-1.71 5.819 7.685zM72.286 0h1.571v22h-1.571z"/></svg>