<svg xmlns="http://www.w3.org/2000/svg" width="80" height="22" fill="none"><path fill="#fff" d="M6.122 21.534.077.407h4.88l3.497 14.679h.175L12.487.406h4.178l3.848 14.711h.186L24.196.407h4.88L23.03 21.534h-4.353L14.653 7.72h-.165l-4.012 13.814zM35.933.407v21.127h-4.467V.407zM43.425.407l5.106 16.051h.196L53.844.407h4.951l-7.283 21.127h-5.756L38.463.407zM79.561 10.97q0 3.456-1.31 5.88-1.3 2.424-3.549 3.703-2.238 1.27-5.034 1.27-2.815 0-5.055-1.28-2.238-1.28-3.538-3.703t-1.3-5.87q0-3.456 1.3-5.88t3.538-3.693q2.24-1.28 5.055-1.28 2.796 0 5.034 1.28 2.25 1.269 3.55 3.693 1.31 2.424 1.31 5.88m-4.529 0q0-2.237-.67-3.776-.66-1.536-1.867-2.331t-2.827-.794q-1.62 0-2.826.794-1.207.795-1.878 2.331-.66 1.538-.66 3.776t.66 3.776q.67 1.536 1.878 2.331 1.206.795 2.826.794 1.62 0 2.827-.794 1.207-.795 1.867-2.331.67-1.538.67-3.776"/></svg>